<svg id="Layer_1" data-name="Layer 1" xmlns="http://www.w3.org/2000/svg" viewBox="0 0 1000 1000"><defs><style>.cls-1{fill:#6366f1;}</style></defs><title>restaurant-app-logo</title><path class="cls-1" d="M500.37.77c-276.14,0-500,223.85-500,500s223.86,500,500,500,500-223.86,500-500S776.52.77,500.37.77ZM822.53,822.92a454.22,454.22,0,1,1,97.63-144.81A453.95,453.95,0,0,1,822.53,822.92ZM500.37,70.17c-237.43,0-430.59,193.16-430.59,430.6S262.94,931.36,500.37,931.36,931,738.2,931,500.77,737.81,70.17,500.37,70.17ZM384.66,442.79c-.35,3.83-.64,7.91-.77,12.24-2.11,65.33-2.94,52.16,0,97.19,4.45,68.37,21.89,151.19,16.78,198.17-1.25,11.47-4.12,43.56-16.78,54.77-4.89,4.32-9.79,4.15-13,4.44h-.42c-3.23-.29-8.12-.12-13-4.44-12.66-11.21-15.53-43.3-16.78-54.77-5.11-47,12.33-129.8,16.78-198.17,2.94-45,2.1-31.86,0-97.19-.13-4.33-.42-8.41-.77-12.24-33.15-11.07-58.14-60.73-58.14-120.32,0-67.72,32.29-122.62,72.13-122.62s72.13,54.9,72.13,122.62C442.8,382.06,417.8,431.72,384.66,442.79Zm317.55-43.12c0,24.39-27.4,22.95-46.05,45.43-.26,3.15-.46,6.47-.57,9.93-2.1,65.33-2.94,52.16,0,97.19,4.45,68.37,21.89,151.19,16.78,198.17-1.25,11.47-4.12,43.56-16.78,54.77-4.89,4.32-9.78,4.15-13,4.44h-.42c-3.22-.29-8.12-.12-13-4.44-12.66-11.21-15.53-43.3-16.78-54.77-5.11-47,12.33-129.8,16.78-198.17,2.94-45,2.11-31.86,0-97.19-.11-3.46-.31-6.78-.57-9.93-18.74-22.59-46.05-21-46.05-45.43V213.94c0-7.78,5.24-14.09,11.69-14.09h2.17c1.79,0,3.24,1.75,3.24,3.91V347.32c0,4.36,2.93,7.89,6.55,7.89h4c3.62,0,6.55-3.53,6.55-7.89V203.76c0-2.16,1.46-3.91,3.24-3.91h10.62c1.79,0,3.24,1.75,3.24,3.91V347.32c0,4.36,2.94,7.89,6.55,7.89h4c3.62,0,6.55-3.54,6.55-7.9V203.76c0-2.16,1.45-3.91,3.24-3.91h10.63c1.78,0,3.23,1.75,3.23,3.91V347.32c0,4.36,2.94,7.89,6.55,7.89h4c3.62,0,6.56-3.54,6.56-7.9V203.76c0-2.16,1.44-3.91,3.23-3.91h2.16c6.46,0,11.69,6.31,11.69,14.09Z" transform="translate(-0.37 -0.77)"/></svg>